<?xml version="1.0" encoding="UTF-8"?>
<svg xmlns="http://www.w3.org/2000/svg" xmlns:xlink="http://www.w3.org/1999/xlink" viewBox="0 0 512 512" width="512px" height="512px">
<g id="surface5030046">
<path style=" stroke:none;fill-rule:nonzero;fill:rgb(14.901961%,64.705884%,89.411765%);fill-opacity:1;" d="M 312.824219 32.71875 C 280.496094 3.703125 231.503906 3.703125 199.175781 32.71875 L 22.640625 191.144531 L 199.175781 349.570312 C 231.503906 378.582031 280.496094 378.582031 312.824219 349.570312 L 489.359375 191.144531 Z M 312.824219 32.71875 "/>
<path style=" stroke:none;fill-rule:nonzero;fill:rgb(96.862745%,96.078432%,98.431373%);fill-opacity:1;" d="M 395.414062 156.8125 L 395.414062 275.464844 L 312.835938 349.574219 C 280.5 378.582031 231.507812 378.582031 199.175781 349.574219 L 116.585938 275.453125 L 116.585938 156.8125 C 116.582031 146.492188 120.683594 136.589844 127.980469 129.292969 C 135.28125 121.992188 145.183594 117.890625 155.503906 117.894531 L 356.496094 117.894531 C 366.816406 117.890625 376.71875 121.992188 384.015625 129.292969 C 391.316406 136.589844 395.417969 146.492188 395.414062 156.8125 Z M 395.414062 156.8125 "/>
<path style=" stroke:none;fill-rule:nonzero;fill:rgb(100%,100%,100%);fill-opacity:1;" d="M 489.359375 191.140625 L 489.359375 447.132812 C 489.355469 476.90625 465.214844 501.042969 435.441406 501.042969 L 76.558594 501.042969 C 46.785156 501.042969 22.644531 476.90625 22.640625 447.132812 L 22.640625 191.140625 L 199.171875 349.570312 C 231.503906 378.582031 280.496094 378.582031 312.828125 349.570312 Z M 489.359375 191.140625 "/>
<path style=" stroke:none;fill-rule:nonzero;fill:rgb(90.588236%,29.803923%,23.529412%);fill-opacity:1;" d="M 338.945312 166.402344 C 330.265625 157.722656 318.5 152.847656 306.226562 152.847656 C 293.953125 152.847656 282.183594 157.722656 273.507812 166.402344 L 261.433594 178.476562 C 259.992188 179.917969 258.039062 180.726562 256 180.726562 C 253.960938 180.726562 252.007812 179.917969 250.566406 178.476562 L 238.492188 166.402344 C 229.8125 157.722656 218.046875 152.847656 205.773438 152.847656 C 193.5 152.847656 181.730469 157.722656 173.054688 166.402344 C 154.984375 184.472656 154.984375 213.769531 173.054688 231.839844 L 242.363281 301.015625 C 249.898438 308.539062 262.101562 308.539062 269.636719 301.015625 L 338.945312 231.839844 C 347.621094 223.160156 352.496094 211.394531 352.496094 199.121094 C 352.496094 186.847656 347.621094 175.078125 338.945312 166.402344 Z M 338.945312 166.402344 "/>
<path style=" stroke:none;fill-rule:nonzero;fill:rgb(100%,100%,100%);fill-opacity:1;" d="M 387.324219 501.046875 L 76.5625 501.046875 C 46.789062 501.046875 22.648438 476.914062 22.644531 447.136719 L 22.644531 246.945312 C 96.375 381.105469 229.902344 477.765625 387.324219 501.046875 Z M 387.324219 501.046875 "/>
<path style=" stroke:none;fill-rule:nonzero;fill:rgb(5.882353%,52.549022%,84.313726%);fill-opacity:1;" d="M 255.996094 377.402344 C 233.53125 377.410156 211.859375 369.09375 195.164062 354.058594 L 18.632812 195.632812 C 17.363281 194.492188 16.640625 192.871094 16.640625 191.164062 C 16.640625 189.460938 17.363281 187.839844 18.632812 186.699219 L 195.164062 28.273438 C 229.75 -2.847656 282.246094 -2.847656 316.828125 28.273438 L 493.363281 186.699219 C 494.628906 187.839844 495.355469 189.460938 495.355469 191.164062 C 495.355469 192.871094 494.628906 194.492188 493.363281 195.628906 L 316.828125 354.058594 C 300.136719 369.09375 278.464844 377.410156 255.996094 377.402344 Z M 31.621094 191.164062 L 203.179688 345.128906 C 233.207031 372.148438 278.789062 372.148438 308.816406 345.128906 L 480.371094 191.164062 L 308.816406 37.203125 C 278.785156 10.183594 233.207031 10.183594 203.179688 37.203125 Z M 31.621094 191.164062 "/>
<path style=" stroke:none;fill-rule:nonzero;fill:rgb(5.882353%,52.549022%,84.313726%);fill-opacity:1;" d="M 256 377.402344 C 233.535156 377.410156 211.859375 369.09375 195.164062 354.0625 L 112.574219 279.941406 C 111.304688 278.800781 110.582031 277.179688 110.582031 275.476562 L 110.582031 156.835938 C 110.609375 132.039062 130.703125 111.941406 155.5 111.914062 L 356.492188 111.914062 C 381.289062 111.941406 401.382812 132.039062 401.410156 156.835938 L 401.410156 275.484375 C 401.410156 277.1875 400.6875 278.8125 399.417969 279.949219 L 316.839844 354.0625 C 300.140625 369.09375 278.46875 377.410156 256 377.402344 Z M 122.582031 272.796875 L 203.179688 345.128906 C 233.210938 372.152344 278.792969 372.152344 308.824219 345.128906 L 389.410156 272.808594 L 389.410156 156.835938 C 389.390625 138.664062 374.664062 123.9375 356.492188 123.914062 L 155.5 123.914062 C 137.328125 123.9375 122.601562 138.664062 122.582031 156.835938 Z M 395.410156 275.484375 Z M 395.410156 275.484375 "/>
<path style=" stroke:none;fill-rule:nonzero;fill:rgb(5.882353%,52.549022%,84.313726%);fill-opacity:1;" d="M 435.441406 507.070312 L 76.5625 507.070312 C 43.488281 507.035156 16.679688 480.234375 16.640625 447.160156 L 16.640625 369.519531 C 16.640625 366.203125 19.328125 363.519531 22.640625 363.519531 C 25.953125 363.519531 28.640625 366.203125 28.640625 369.519531 L 28.640625 447.160156 C 28.671875 473.609375 50.109375 495.042969 76.5625 495.070312 L 435.441406 495.070312 C 461.890625 495.042969 483.328125 473.609375 483.359375 447.160156 L 483.359375 204.605469 L 399.417969 279.953125 L 316.839844 354.0625 C 291.554688 376.78125 255.71875 383.519531 223.910156 371.535156 C 213.332031 367.527344 203.582031 361.601562 195.15625 354.054688 L 112.574219 279.945312 C 112.5 279.878906 112.429688 279.808594 112.359375 279.742188 L 28.640625 204.613281 L 28.640625 322.707031 C 28.640625 326.023438 25.953125 328.707031 22.640625 328.707031 C 19.328125 328.707031 16.640625 326.023438 16.640625 322.707031 L 16.640625 191.167969 C 16.640625 188.800781 18.035156 186.652344 20.195312 185.6875 C 22.359375 184.722656 24.886719 185.121094 26.648438 186.703125 L 120.589844 271.003906 C 120.660156 271.070312 120.734375 271.136719 120.804688 271.207031 L 203.179688 345.132812 C 225.132812 364.859375 256.25 370.710938 283.871094 360.300781 C 293.054688 356.84375 301.515625 351.703125 308.8125 345.140625 L 391.402344 271.023438 L 485.34375 186.703125 C 487.105469 185.121094 489.636719 184.722656 491.800781 185.6875 C 493.964844 186.652344 495.359375 188.800781 495.363281 191.167969 L 495.363281 447.160156 C 495.320312 480.234375 468.515625 507.035156 435.441406 507.070312 Z M 214.695312 353.742188 C 214.738281 353.761719 214.78125 353.785156 214.820312 353.808594 C 214.78125 353.785156 214.738281 353.765625 214.695312 353.742188 Z M 214.695312 353.742188 "/>
<path style=" stroke:none;fill-rule:nonzero;fill:rgb(5.882353%,52.549022%,84.313726%);fill-opacity:1;" d="M 22.640625 356.617188 C 19.328125 356.617188 16.640625 353.933594 16.640625 350.617188 L 16.640625 341.617188 C 16.640625 338.304688 19.328125 335.617188 22.640625 335.617188 C 25.953125 335.617188 28.640625 338.304688 28.640625 341.617188 L 28.640625 350.617188 C 28.640625 353.933594 25.953125 356.617188 22.640625 356.617188 Z M 22.640625 356.617188 "/>
<path style=" stroke:none;fill-rule:nonzero;fill:rgb(5.882353%,52.549022%,84.313726%);fill-opacity:1;" d="M 255.996094 312.664062 C 249.292969 312.675781 242.863281 310.019531 238.121094 305.285156 L 168.8125 236.109375 C 148.398438 215.695312 148.398438 182.597656 168.808594 162.183594 C 189.222656 141.769531 222.316406 141.769531 242.730469 162.179688 L 254.804688 174.253906 C 255.464844 174.910156 256.53125 174.910156 257.1875 174.253906 L 269.261719 162.179688 C 279.066406 152.378906 292.359375 146.871094 306.222656 146.871094 C 320.085938 146.871094 333.382812 152.378906 343.183594 162.179688 C 352.988281 171.984375 358.496094 185.277344 358.496094 199.140625 C 358.496094 213.003906 352.988281 226.300781 343.183594 236.105469 L 273.871094 305.285156 C 269.128906 310.019531 262.699219 312.675781 255.996094 312.664062 Z M 205.769531 158.871094 C 189.480469 158.871094 174.796875 168.683594 168.5625 183.730469 C 162.332031 198.78125 165.777344 216.101562 177.292969 227.617188 L 246.597656 296.792969 C 251.796875 301.964844 260.195312 301.964844 265.394531 296.792969 L 334.703125 227.613281 C 350.425781 211.886719 350.425781 186.390625 334.699219 170.667969 C 327.148438 163.113281 316.902344 158.871094 306.222656 158.871094 C 295.542969 158.871094 285.300781 163.113281 277.746094 170.667969 L 265.675781 182.738281 C 260.324219 188.074219 251.667969 188.074219 246.320312 182.738281 L 234.246094 170.667969 C 226.710938 163.089844 216.457031 158.839844 205.769531 158.871094 Z M 205.769531 158.871094 "/>
</g>
</svg>
