<?xml version="1.0" encoding="UTF-8"?>
<svg xmlns="http://www.w3.org/2000/svg" xmlns:xlink="http://www.w3.org/1999/xlink" viewBox="0 0 256 256" width="256px" height="256px">
<g id="surface4097980">
<path style=" stroke:none;fill-rule:nonzero;fill:rgb(14.901961%,64.705884%,89.411765%);fill-opacity:1;" d="M 220.535156 61.296875 L 156.566406 114.839844 C 135.183594 132.746094 104.042969 132.746094 82.664062 114.839844 L 18.699219 61.296875 C 26.335938 54.175781 36.386719 50.226562 46.824219 50.238281 L 192.410156 50.238281 C 202.847656 50.226562 212.898438 54.179688 220.535156 61.296875 Z M 220.535156 61.296875 "/>
<path style=" stroke:none;fill-rule:nonzero;fill:rgb(14.901961%,64.705884%,89.411765%);fill-opacity:1;" d="M 183 143.230469 C 188.800781 137.460938 198.175781 137.460938 203.976562 143.230469 L 207.609375 146.855469 L 211.226562 143.253906 C 217.007812 137.484375 226.371094 137.484375 232.15625 143.253906 C 234.925781 146.019531 236.480469 149.773438 236.480469 153.683594 C 236.480469 157.597656 234.925781 161.351562 232.15625 164.113281 L 228.539062 167.71875 L 210.785156 185.421875 C 209.003906 187.195312 206.125 187.195312 204.34375 185.421875 L 186.640625 167.765625 L 183 164.140625 C 180.21875 161.371094 178.65625 157.609375 178.65625 153.683594 C 178.65625 149.761719 180.21875 146 183 143.230469 Z M 183 143.230469 "/>
<path style=" stroke:none;fill-rule:nonzero;fill:rgb(5.882353%,52.549022%,84.313726%);fill-opacity:1;" d="M 194.371094 208.761719 L 44.871094 208.761719 C 21.480469 208.738281 2.523438 189.785156 2.5 166.394531 L 2.5 147 C 2.5 145.34375 3.84375 144 5.5 144 C 7.15625 144 8.5 145.34375 8.5 147 L 8.5 166.378906 C 8.523438 186.453125 24.789062 202.71875 44.859375 202.746094 L 184.859375 202.746094 C 166.730469 192.445312 157.816406 171.226562 163.144531 151.070312 C 168.472656 130.914062 186.710938 116.875 207.558594 116.878906 C 215.703125 116.851562 223.707031 119.011719 230.730469 123.136719 L 230.730469 89.609375 C 230.710938 69.535156 214.441406 53.265625 194.363281 53.246094 L 44.863281 53.246094 C 24.789062 53.265625 8.519531 69.535156 8.5 89.609375 L 8.5 123.609375 C 8.5 125.265625 7.15625 126.609375 5.5 126.609375 C 3.84375 126.609375 2.5 125.265625 2.5 123.609375 L 2.5 89.609375 C 2.523438 66.226562 21.476562 47.273438 44.859375 47.246094 L 194.359375 47.246094 C 217.746094 47.273438 236.699219 66.222656 236.726562 89.609375 L 236.726562 128.789062 C 236.722656 129.933594 236.074219 130.976562 235.046875 131.480469 C 234.023438 131.984375 232.800781 131.863281 231.894531 131.164062 C 224.929688 125.773438 216.363281 122.863281 207.554688 122.894531 C 186.730469 122.90625 169.410156 138.921875 167.769531 159.683594 C 166.128906 180.441406 180.714844 198.980469 201.28125 202.265625 C 202.738281 202.492188 203.8125 203.742188 203.820312 205.21875 C 203.824219 206.691406 202.761719 207.953125 201.304688 208.191406 C 199.011719 208.566406 196.691406 208.757812 194.371094 208.761719 Z M 194.371094 208.761719 "/>
<path style=" stroke:none;fill-rule:nonzero;fill:rgb(5.882353%,52.549022%,84.313726%);fill-opacity:1;" d="M 5.5 140.566406 C 3.84375 140.566406 2.5 139.222656 2.5 137.566406 L 2.5 133.066406 C 2.5 131.40625 3.84375 130.066406 5.5 130.066406 C 7.15625 130.066406 8.5 131.40625 8.5 133.066406 L 8.5 137.566406 C 8.5 139.222656 7.15625 140.566406 5.5 140.566406 Z M 5.5 140.566406 "/>
<path style=" stroke:none;fill-rule:nonzero;fill:rgb(5.882353%,52.549022%,84.313726%);fill-opacity:1;" d="M 119.613281 131.285156 C 105.394531 131.292969 91.628906 126.285156 80.738281 117.140625 L 16.773438 63.59375 C 16.113281 63.042969 15.722656 62.234375 15.699219 61.371094 C 15.675781 60.511719 16.023438 59.679688 16.65625 59.09375 C 24.84375 51.460938 35.628906 47.226562 46.824219 47.238281 L 192.410156 47.238281 C 203.605469 47.226562 214.386719 51.464844 222.574219 59.101562 C 223.207031 59.6875 223.554688 60.515625 223.535156 61.375 C 223.511719 62.238281 223.121094 63.046875 222.460938 63.601562 L 158.5 117.140625 C 147.605469 126.28125 133.835938 131.292969 119.613281 131.285156 Z M 23.351562 61.273438 L 84.589844 112.539062 C 104.847656 129.53125 134.382812 129.53125 154.640625 112.539062 L 215.886719 61.273438 C 209.171875 56.058594 200.910156 53.230469 192.410156 53.238281 L 46.824219 53.238281 C 38.324219 53.230469 30.0625 56.058594 23.351562 61.273438 Z M 23.351562 61.273438 "/>
<path style=" stroke:none;fill-rule:nonzero;fill:rgb(5.882353%,52.549022%,84.313726%);fill-opacity:1;" d="M 207.566406 208.761719 C 182.195312 208.761719 161.628906 188.195312 161.628906 162.824219 C 161.628906 137.457031 182.195312 116.890625 207.566406 116.890625 C 232.933594 116.890625 253.5 137.457031 253.5 162.824219 C 253.464844 188.179688 232.917969 208.722656 207.566406 208.761719 Z M 207.566406 122.890625 C 185.507812 122.890625 167.628906 140.769531 167.628906 162.824219 C 167.628906 184.878906 185.507812 202.761719 207.566406 202.761719 C 229.621094 202.761719 247.5 184.878906 247.5 162.824219 C 247.464844 140.785156 229.605469 122.925781 207.566406 122.890625 Z M 207.566406 122.890625 "/>
<path style=" stroke:none;fill-rule:nonzero;fill:rgb(5.882353%,52.549022%,84.313726%);fill-opacity:1;" d="M 207.558594 189.746094 C 205.558594 189.75 203.640625 188.957031 202.226562 187.546875 L 180.878906 166.265625 C 177.535156 162.933594 175.65625 158.40625 175.65625 153.683594 C 175.65625 148.964844 177.535156 144.4375 180.878906 141.105469 C 187.855469 134.179688 199.109375 134.179688 206.085938 141.105469 L 207.585938 142.605469 L 209.085938 141.105469 C 216.046875 134.183594 227.289062 134.183594 234.25 141.105469 C 237.589844 144.429688 239.464844 148.949219 239.464844 153.660156 C 239.464844 158.371094 237.589844 162.890625 234.25 166.214844 L 212.898438 187.546875 C 211.480469 188.957031 209.5625 189.746094 207.558594 189.746094 Z M 185.113281 145.355469 C 182.898438 147.5625 181.652344 150.558594 181.652344 153.683594 C 181.652344 156.8125 182.898438 159.808594 185.113281 162.015625 L 206.460938 183.296875 C 207.070312 183.898438 208.050781 183.898438 208.660156 183.296875 L 230.03125 162 C 232.238281 159.800781 233.480469 156.8125 233.480469 153.695312 C 233.480469 150.578125 232.238281 147.589844 230.03125 145.390625 C 225.414062 140.800781 217.957031 140.800781 213.339844 145.390625 L 209.726562 149 C 208.554688 150.167969 206.65625 150.167969 205.484375 149 L 201.851562 145.375 C 197.21875 140.773438 189.746094 140.773438 185.113281 145.375 Z M 185.113281 145.355469 "/>
</g>
</svg>
