<?xml version="1.0" encoding="UTF-8"?>
<svg xmlns="http://www.w3.org/2000/svg" xmlns:xlink="http://www.w3.org/1999/xlink" viewBox="0 0 256 256" width="256px" height="256px">
<g id="surface5045018">
<path style=" stroke:none;fill-rule:nonzero;fill:rgb(14.901961%,64.705884%,89.411765%);fill-opacity:1;" d="M 156.414062 16.359375 C 140.25 1.851562 115.75 1.851562 99.585938 16.359375 L 11.320312 95.570312 L 99.585938 174.785156 C 115.75 189.292969 140.25 189.292969 156.414062 174.785156 L 244.679688 95.570312 Z M 156.414062 16.359375 "/>
<path style=" stroke:none;fill-rule:nonzero;fill:rgb(96.862745%,96.078432%,98.431373%);fill-opacity:1;" d="M 197.707031 78.40625 L 197.707031 137.730469 L 156.417969 174.785156 C 140.25 189.292969 115.753906 189.292969 99.585938 174.785156 L 58.292969 137.726562 L 58.292969 78.40625 C 58.292969 73.246094 60.339844 68.296875 63.992188 64.644531 C 67.640625 60.996094 72.589844 58.945312 77.753906 58.945312 L 178.246094 58.945312 C 183.410156 58.945312 188.359375 60.996094 192.007812 64.644531 C 195.65625 68.296875 197.707031 73.246094 197.707031 78.40625 Z M 197.707031 78.40625 "/>
<path style=" stroke:none;fill-rule:nonzero;fill:rgb(100%,100%,100%);fill-opacity:1;" d="M 244.679688 95.570312 L 244.679688 223.566406 C 244.679688 238.453125 232.609375 250.523438 217.71875 250.519531 L 38.28125 250.519531 C 23.390625 250.523438 11.320312 238.453125 11.320312 223.566406 L 11.320312 95.570312 L 99.585938 174.785156 C 115.75 189.292969 140.25 189.292969 156.414062 174.785156 Z M 244.679688 95.570312 "/>
<path style=" stroke:none;fill-rule:nonzero;fill:rgb(90.588236%,29.803923%,23.529412%);fill-opacity:1;" d="M 169.472656 83.199219 C 165.132812 78.863281 159.25 76.425781 153.113281 76.425781 C 146.976562 76.425781 141.09375 78.863281 136.753906 83.199219 L 130.71875 89.238281 C 129.996094 89.957031 129.019531 90.363281 128 90.363281 C 126.980469 90.363281 126.003906 89.957031 125.28125 89.238281 L 119.246094 83.199219 C 114.90625 78.863281 109.023438 76.425781 102.886719 76.425781 C 96.75 76.425781 90.867188 78.863281 86.527344 83.199219 C 77.492188 92.234375 77.492188 106.882812 86.527344 115.917969 L 121.179688 150.507812 C 124.949219 154.269531 131.050781 154.269531 134.816406 150.507812 L 169.472656 115.917969 C 173.8125 111.582031 176.25 105.695312 176.25 99.558594 C 176.25 93.425781 173.8125 87.539062 169.472656 83.199219 Z M 169.472656 83.199219 "/>
<path style=" stroke:none;fill-rule:nonzero;fill:rgb(100%,100%,100%);fill-opacity:1;" d="M 193.660156 250.523438 L 38.28125 250.523438 C 23.394531 250.523438 11.324219 238.457031 11.320312 223.570312 L 11.320312 123.472656 C 48.1875 190.554688 114.953125 238.882812 193.660156 250.523438 Z M 193.660156 250.523438 "/>
<path style=" stroke:none;fill-rule:nonzero;fill:rgb(5.882353%,52.549022%,84.313726%);fill-opacity:1;" d="M 128 188.699219 C 116.765625 188.703125 105.929688 184.546875 97.582031 177.027344 L 9.316406 97.816406 C 8.683594 97.246094 8.320312 96.433594 8.320312 95.582031 C 8.320312 94.730469 8.683594 93.917969 9.316406 93.351562 L 97.582031 14.136719 C 114.875 -1.425781 141.121094 -1.425781 158.414062 14.136719 L 246.679688 93.351562 C 247.316406 93.917969 247.675781 94.730469 247.675781 95.582031 C 247.675781 96.433594 247.316406 97.246094 246.679688 97.816406 L 158.414062 177.027344 C 150.066406 184.546875 139.230469 188.703125 128 188.699219 Z M 15.8125 95.582031 L 101.589844 172.5625 C 116.601562 186.074219 139.394531 186.074219 154.40625 172.5625 L 240.1875 95.582031 L 154.40625 18.601562 C 139.394531 5.089844 116.601562 5.089844 101.589844 18.601562 Z M 15.8125 95.582031 "/>
<path style=" stroke:none;fill-rule:nonzero;fill:rgb(5.882353%,52.549022%,84.313726%);fill-opacity:1;" d="M 128 188.699219 C 116.765625 188.707031 105.929688 184.546875 97.582031 177.03125 L 56.285156 139.96875 C 55.652344 139.402344 55.289062 138.589844 55.289062 137.738281 L 55.289062 78.417969 C 55.304688 66.019531 65.351562 55.972656 77.75 55.957031 L 178.246094 55.957031 C 190.644531 55.972656 200.691406 66.019531 200.707031 78.417969 L 200.707031 137.742188 C 200.707031 138.59375 200.34375 139.40625 199.710938 139.976562 L 158.417969 177.03125 C 150.070312 184.546875 139.234375 188.703125 128 188.699219 Z M 61.289062 136.398438 L 101.589844 172.566406 C 116.605469 186.074219 139.394531 186.074219 154.410156 172.566406 L 194.707031 136.402344 L 194.707031 78.417969 C 194.695312 69.332031 187.332031 61.96875 178.246094 61.957031 L 77.75 61.957031 C 68.664062 61.96875 61.300781 69.332031 61.289062 78.417969 Z M 197.707031 137.742188 Z M 197.707031 137.742188 "/>
<path style=" stroke:none;fill-rule:nonzero;fill:rgb(5.882353%,52.549022%,84.313726%);fill-opacity:1;" d="M 217.71875 253.535156 L 38.28125 253.535156 C 21.742188 253.515625 8.339844 240.117188 8.320312 223.578125 L 8.320312 184.757812 C 8.320312 183.101562 9.664062 181.757812 11.320312 181.757812 C 12.976562 181.757812 14.320312 183.101562 14.320312 184.757812 L 14.320312 223.578125 C 14.335938 236.804688 25.054688 247.519531 38.28125 247.535156 L 217.71875 247.535156 C 230.945312 247.519531 241.664062 236.804688 241.679688 223.578125 L 241.679688 102.304688 L 199.710938 139.976562 L 158.417969 177.03125 C 145.777344 188.390625 127.859375 191.757812 111.953125 185.765625 C 106.664062 183.761719 101.792969 180.800781 97.578125 177.027344 L 56.285156 139.972656 C 56.25 139.9375 56.214844 139.90625 56.179688 139.871094 L 14.320312 102.308594 L 14.320312 161.355469 C 14.320312 163.011719 12.976562 164.355469 11.320312 164.355469 C 9.664062 164.355469 8.320312 163.011719 8.320312 161.355469 L 8.320312 95.585938 C 8.320312 94.398438 9.015625 93.328125 10.097656 92.84375 C 11.179688 92.363281 12.441406 92.558594 13.324219 93.351562 L 60.292969 135.5 C 60.332031 135.535156 60.367188 135.570312 60.402344 135.601562 L 101.589844 172.566406 C 112.566406 182.429688 128.125 185.355469 141.933594 180.152344 C 146.527344 178.421875 150.757812 175.851562 154.40625 172.570312 L 195.703125 135.511719 L 242.671875 93.351562 C 243.554688 92.5625 244.816406 92.363281 245.898438 92.84375 C 246.980469 93.328125 247.679688 94.398438 247.679688 95.585938 L 247.679688 223.578125 C 247.660156 240.117188 234.257812 253.515625 217.71875 253.535156 Z M 107.347656 176.871094 C 107.371094 176.882812 107.390625 176.894531 107.410156 176.902344 C 107.390625 176.894531 107.371094 176.882812 107.347656 176.871094 Z M 107.347656 176.871094 "/>
<path style=" stroke:none;fill-rule:nonzero;fill:rgb(5.882353%,52.549022%,84.313726%);fill-opacity:1;" d="M 11.320312 178.308594 C 9.664062 178.308594 8.320312 176.964844 8.320312 175.308594 L 8.320312 170.808594 C 8.320312 169.152344 9.664062 167.808594 11.320312 167.808594 C 12.976562 167.808594 14.320312 169.152344 14.320312 170.808594 L 14.320312 175.308594 C 14.320312 176.964844 12.976562 178.308594 11.320312 178.308594 Z M 11.320312 178.308594 "/>
<path style=" stroke:none;fill-rule:nonzero;fill:rgb(5.882353%,52.549022%,84.313726%);fill-opacity:1;" d="M 128 156.332031 C 124.648438 156.335938 121.429688 155.011719 119.0625 152.640625 L 84.40625 118.054688 C 74.199219 107.847656 74.199219 91.300781 84.40625 81.09375 C 94.609375 70.886719 111.160156 70.882812 121.367188 81.089844 L 127.402344 87.125 C 127.730469 87.457031 128.265625 87.457031 128.59375 87.125 L 134.632812 81.089844 C 139.53125 76.1875 146.179688 73.433594 153.113281 73.433594 C 160.042969 73.433594 166.691406 76.1875 171.59375 81.089844 C 176.492188 85.992188 179.246094 92.640625 179.246094 99.570312 C 179.246094 106.503906 176.492188 113.152344 171.59375 118.050781 L 136.9375 152.640625 C 134.566406 155.011719 131.347656 156.335938 128 156.332031 Z M 102.886719 79.433594 C 94.742188 79.433594 87.398438 84.339844 84.28125 91.867188 C 81.164062 99.390625 82.886719 108.050781 88.648438 113.808594 L 123.300781 148.394531 C 125.898438 150.980469 130.097656 150.980469 132.699219 148.394531 L 167.351562 113.808594 C 175.214844 105.945312 175.210938 93.195312 167.347656 85.332031 C 163.574219 81.558594 158.453125 79.433594 153.113281 79.433594 C 147.769531 79.433594 142.648438 81.558594 138.875 85.332031 L 132.835938 91.371094 C 130.164062 94.039062 125.832031 94.039062 123.160156 91.371094 L 117.125 85.332031 C 113.355469 81.542969 108.226562 79.421875 102.886719 79.433594 Z M 102.886719 79.433594 "/>
</g>
</svg>
