<?xml version="1.0" encoding="UTF-8"?>
<svg xmlns="http://www.w3.org/2000/svg" xmlns:xlink="http://www.w3.org/1999/xlink" viewBox="0 0 64 64" width="64px" height="64px">
<g id="surface4103172">
<path style=" stroke:none;fill-rule:nonzero;fill:rgb(14.901961%,64.705884%,89.411765%);fill-opacity:1;" d="M 55.132812 15.324219 L 39.140625 28.710938 C 33.796875 33.1875 26.011719 33.1875 20.667969 28.710938 L 4.675781 15.324219 C 6.582031 13.542969 9.097656 12.554688 11.707031 12.558594 L 48.101562 12.558594 C 50.710938 12.558594 53.226562 13.542969 55.132812 15.324219 Z M 55.132812 15.324219 "/>
<path style=" stroke:none;fill-rule:nonzero;fill:rgb(14.901961%,64.705884%,89.411765%);fill-opacity:1;" d="M 45.75 35.808594 C 47.199219 34.363281 49.542969 34.363281 50.992188 35.808594 L 51.902344 36.714844 L 52.804688 35.8125 C 54.253906 34.371094 56.59375 34.371094 58.039062 35.8125 C 58.730469 36.503906 59.121094 37.441406 59.121094 38.421875 C 59.121094 39.398438 58.730469 40.335938 58.039062 41.027344 L 57.136719 41.929688 L 52.695312 46.355469 C 52.25 46.796875 51.53125 46.796875 51.085938 46.355469 L 46.660156 41.941406 L 45.75 41.035156 C 45.054688 40.34375 44.664062 39.402344 44.664062 38.421875 C 44.664062 37.441406 45.054688 36.5 45.75 35.808594 Z M 45.75 35.808594 "/>
<path style=" stroke:none;fill-rule:nonzero;fill:rgb(5.882353%,52.549022%,84.313726%);fill-opacity:1;" d="M 48.59375 52.191406 L 11.21875 52.191406 C 5.371094 52.183594 0.632812 47.445312 0.625 41.597656 L 0.625 36.75 C 0.625 36.335938 0.960938 36 1.375 36 C 1.789062 36 2.125 36.335938 2.125 36.75 L 2.125 41.59375 C 2.128906 46.613281 6.195312 50.679688 11.214844 50.6875 L 46.214844 50.6875 C 41.683594 48.113281 39.453125 42.808594 40.785156 37.769531 C 42.117188 32.726562 46.675781 29.21875 51.890625 29.21875 C 53.925781 29.210938 55.925781 29.753906 57.683594 30.785156 L 57.683594 22.402344 C 57.675781 17.382812 53.609375 13.316406 48.589844 13.3125 L 11.214844 13.3125 C 6.199219 13.316406 2.128906 17.382812 2.125 22.402344 L 2.125 30.902344 C 2.125 31.316406 1.789062 31.652344 1.375 31.652344 C 0.960938 31.652344 0.625 31.316406 0.625 30.902344 L 0.625 22.402344 C 0.632812 16.554688 5.367188 11.816406 11.214844 11.8125 L 48.589844 11.8125 C 54.4375 11.816406 59.175781 16.554688 59.179688 22.402344 L 59.179688 32.199219 C 59.179688 32.484375 59.019531 32.742188 58.761719 32.871094 C 58.503906 32.996094 58.199219 32.964844 57.972656 32.792969 C 56.230469 31.445312 54.089844 30.714844 51.890625 30.722656 C 46.683594 30.726562 42.351562 34.730469 41.941406 39.921875 C 41.53125 45.109375 45.179688 49.746094 50.320312 50.566406 C 50.683594 50.621094 50.953125 50.9375 50.953125 51.304688 C 50.957031 51.671875 50.691406 51.988281 50.328125 52.046875 C 49.753906 52.140625 49.171875 52.191406 48.59375 52.191406 Z M 48.59375 52.191406 "/>
<path style=" stroke:none;fill-rule:nonzero;fill:rgb(5.882353%,52.549022%,84.313726%);fill-opacity:1;" d="M 1.375 35.140625 C 0.960938 35.140625 0.625 34.804688 0.625 34.390625 L 0.625 33.265625 C 0.625 32.851562 0.960938 32.515625 1.375 32.515625 C 1.789062 32.515625 2.125 32.851562 2.125 33.265625 L 2.125 34.390625 C 2.125 34.804688 1.789062 35.140625 1.375 35.140625 Z M 1.375 35.140625 "/>
<path style=" stroke:none;fill-rule:nonzero;fill:rgb(5.882353%,52.549022%,84.313726%);fill-opacity:1;" d="M 29.902344 32.820312 C 26.347656 32.824219 22.90625 31.570312 20.183594 29.285156 L 4.195312 15.898438 C 4.027344 15.761719 3.929688 15.558594 3.925781 15.34375 C 3.917969 15.128906 4.007812 14.921875 4.164062 14.773438 C 6.210938 12.867188 8.90625 11.804688 11.707031 11.808594 L 48.101562 11.808594 C 50.902344 11.804688 53.597656 12.867188 55.644531 14.773438 C 55.800781 14.921875 55.890625 15.128906 55.882812 15.34375 C 55.878906 15.558594 55.78125 15.761719 55.613281 15.898438 L 39.625 29.285156 C 36.902344 31.570312 33.460938 32.824219 29.902344 32.820312 Z M 5.835938 15.320312 L 21.148438 28.136719 C 26.210938 32.382812 33.59375 32.382812 38.660156 28.136719 L 53.972656 15.320312 C 52.292969 14.015625 50.226562 13.308594 48.101562 13.308594 L 11.707031 13.308594 C 9.582031 13.308594 7.515625 14.015625 5.835938 15.320312 Z M 5.835938 15.320312 "/>
<path style=" stroke:none;fill-rule:nonzero;fill:rgb(5.882353%,52.549022%,84.313726%);fill-opacity:1;" d="M 51.890625 52.191406 C 45.550781 52.191406 40.40625 47.046875 40.40625 40.707031 C 40.40625 34.363281 45.550781 29.222656 51.890625 29.222656 C 58.234375 29.222656 63.375 34.363281 63.375 40.707031 C 63.367188 47.042969 58.230469 52.179688 51.890625 52.191406 Z M 51.890625 30.722656 C 46.378906 30.722656 41.90625 35.191406 41.90625 40.707031 C 41.90625 46.21875 46.378906 50.691406 51.890625 50.691406 C 57.40625 50.691406 61.875 46.21875 61.875 40.707031 C 61.867188 35.195312 57.402344 30.730469 51.890625 30.722656 Z M 51.890625 30.722656 "/>
<path style=" stroke:none;fill-rule:nonzero;fill:rgb(5.882353%,52.549022%,84.313726%);fill-opacity:1;" d="M 51.890625 47.4375 C 51.390625 47.4375 50.910156 47.238281 50.554688 46.886719 L 45.21875 41.566406 C 44.382812 40.734375 43.914062 39.601562 43.914062 38.421875 C 43.914062 37.242188 44.382812 36.109375 45.21875 35.277344 C 46.964844 33.542969 49.777344 33.542969 51.519531 35.277344 L 51.894531 35.652344 L 52.269531 35.277344 C 54.011719 33.546875 56.824219 33.546875 58.5625 35.277344 C 59.398438 36.109375 59.867188 37.238281 59.867188 38.414062 C 59.867188 39.59375 59.398438 40.722656 58.5625 41.554688 L 53.226562 46.886719 C 52.871094 47.238281 52.390625 47.4375 51.890625 47.4375 Z M 46.277344 36.339844 C 45.726562 36.890625 45.414062 37.640625 45.414062 38.421875 C 45.414062 39.203125 45.726562 39.953125 46.277344 40.503906 L 51.613281 45.824219 C 51.765625 45.976562 52.011719 45.976562 52.164062 45.824219 L 57.507812 40.5 C 58.058594 39.949219 58.371094 39.203125 58.371094 38.421875 C 58.371094 37.644531 58.058594 36.898438 57.507812 36.347656 C 56.351562 35.199219 54.488281 35.199219 53.335938 36.347656 L 52.429688 37.25 C 52.136719 37.542969 51.664062 37.542969 51.371094 37.25 L 50.460938 36.34375 C 49.304688 35.195312 47.4375 35.195312 46.277344 36.34375 Z M 46.277344 36.339844 "/>
</g>
</svg>
